<?xml version="1.0" encoding="utf-8"?>
<!-- Svg Vector Icons : http://www.onlinewebfonts.com/icon -->
<!DOCTYPE svg PUBLIC "-//W3C//DTD SVG 1.1//EN" "http://www.w3.org/Graphics/SVG/1.1/DTD/svg11.dtd">
<svg version="1.1" xmlns="http://www.w3.org/2000/svg" xmlns:xlink="http://www.w3.org/1999/xlink" x="0px" y="0px" viewBox="0 0 1000 1000" enable-background="new 0 0 1000 1000" xml:space="preserve">
<metadata> Svg Vector Icons : http://www.onlinewebfonts.com/icon </metadata>
<g><path d="M802,990c-202.2,0-404.4,0-606.5,0c-45.1-6.5-70.6-32.5-79.3-75.3c0-276.2,0-552.3,0-828.4c5.9-34.1,28.8-61.9,60.5-71.3c31.4-9.3,80.2-2.7,118.3-2.7c84.4,0,179.6,0,262.3,0c19.5,0,41.7-3.3,53.8,0c7.6,2.1,24,23.2,33.6,33.6c68.3,74,131,143,197.7,213.8c12.3,13,26,24.5,32.3,36.3c10,18.8,6.7,58.4,6.7,92.8c0,133.3,0,255,0,386c0,44.3,7.2,114.4-2.7,152C869.2,962.4,844.2,982.4,802,990z M293.6,54c-32.4,0-66.1-4.1-96.8,0c-51.3,6.9-37.7,73.9-37.7,130.5c0,216.3,0,419.7,0,634.8c0,32.1-5.8,83.6,2.7,103.6c12.6,29.6,52.1,24.2,98.2,24.2c164.9,0,319.4,0,476.1,0c26.6,0,59.8,3.9,76.7-2.7c31.4-12.3,25.5-48.9,25.5-91.5c0-181.4,0-343.1,0-521.8c-68.6-8.3-150.1,13.7-200.4-5.4c-21.7-8.2-40.4-27.4-48.4-49.8c-10-27.7-5.4-73.6-5.4-115.7c0-36.1,0-73,0-106.2C486.8,54,389.2,54,293.6,54z M627.2,91.6c-0.1-1.4-1.7-1.1-1.3,1.3c3.5,51.1-4.8,115,0,156c7.6,65.3,115,30.1,184.2,39C753.8,223.2,688.4,155.9,627.2,91.6z"/><path d="M266.7,331c70.4,0,140.8,0,211.1,0c0,13.9,0,27.8,0,41.7c-70.8,0-141.7,0-212.5,0C266.3,359.2,263.6,342.2,266.7,331z"/><path d="M266.7,458.8c70.4,0,140.8,0,211.1,0c0,13.9,0,27.8,0,41.7c-70.8,0-141.7,0-212.5,0C266.3,487,263.6,470,266.7,458.8z"/><path d="M266.7,585.2c155.1,0,310.2,0,465.3,0c0,14.3,0,28.7,0,43c-155.6,0-311.1,0-466.7,0c0-13,0-26,0-39C265.3,587.3,265.2,585.4,266.7,585.2z"/><path d="M266.7,713c155.1,0,310.2,0,465.3,0c0,14.3,0,28.7,0,43c-155.6,0-311.1,0-466.7,0c0-13,0-26,0-39C265.3,715.1,265.2,713.2,266.7,713z"/></g>
</svg>